<?xml version="1.0" standalone="no"?>
<!DOCTYPE svg PUBLIC "-//W3C//DTD SVG 20010904//EN"
 "http://www.w3.org/TR/2001/REC-SVG-20010904/DTD/svg10.dtd">
<svg version="1.0" xmlns="http://www.w3.org/2000/svg"
 width="225.000000pt" height="225.000000pt" viewBox="0 0 225.000000 225.000000"
 preserveAspectRatio="xMidYMid meet">
<metadata>
Created by potrace 1.14, written by Peter Selinger 2001-2017
</metadata>
<g transform="translate(0.000000,225.000000) scale(0.100000,-0.100000)"
fill="#000000" stroke="none">
<path d="M550 2224 c-13 -34 -13 -164 1 -279 l12 -93 -44 -53 c-39 -48 -113
-123 -153 -157 -34 -27 -111 -62 -140 -62 -46 0 -59 -12 -52 -47 7 -30 24 -57
59 -94 9 -11 17 -23 17 -28 0 -22 72 -42 140 -40 74 2 89 -2 73 -23 -5 -7 -22
-42 -37 -78 -58 -136 -44 -287 39 -425 77 -127 173 -197 262 -188 94 8 202 76
288 180 64 77 91 130 105 204 15 78 12 118 -14 182 -33 79 -67 127 -121 167
l-44 33 25 24 c14 12 28 23 32 23 8 1 71 57 90 81 10 14 10 25 -4 65 -20 60
-50 88 -133 127 l-64 30 -49 -27 c-28 -16 -53 -24 -57 -20 -10 12 -48 230 -57
324 -10 112 -25 143 -88 174 -66 32 -74 32 -86 0z m335 -954 c26 -10 26 -10
11 -76 -18 -81 -102 -193 -186 -246 -74 -47 -100 -55 -101 -31 -4 70 24 176
60 233 26 40 99 104 134 117 41 15 50 15 82 3z"/>
<path d="M1378 1785 c-2 -3 -13 -6 -24 -8 -34 -5 -126 -66 -118 -79 4 -7 3 -8
-5 -4 -16 10 -65 -39 -55 -55 4 -7 3 -9 -4 -5 -19 11 -25 -33 -8 -59 9 -13 16
-30 16 -38 0 -8 11 -13 28 -12 15 0 26 5 25 10 -1 6 10 11 24 12 15 0 30 8 34
16 5 8 22 20 39 27 16 7 27 17 23 23 -3 5 -1 7 4 4 6 -4 27 0 47 8 19 8 56 15
80 15 63 0 146 -19 146 -34 0 -7 -19 -22 -42 -34 -24 -12 -65 -36 -93 -53 -27
-16 -90 -50 -139 -74 -154 -77 -161 -87 -186 -255 -17 -115 -12 -190 17 -248
35 -69 111 -148 151 -157 18 -3 32 -10 32 -14 0 -4 -18 -41 -40 -83 -41 -79
-92 -216 -95 -258 -1 -14 2 -40 6 -58 8 -35 7 -35 -46 9 -33 27 -149 69 -176
63 -82 -19 -286 -97 -361 -139 -40 -23 -45 -19 -52 43 -8 72 -59 269 -84 325
-14 30 -31 48 -61 64 -24 13 -47 23 -53 23 -9 0 -2 -176 9 -193 9 -15 4 -202
-7 -252 -6 -27 -12 -60 -14 -72 -4 -24 57 -156 68 -146 3 3 6 1 6 -6 0 -16 41
-56 78 -75 59 -31 106 -20 357 79 148 58 209 78 338 109 15 4 27 13 27 22 0
26 18 12 52 -43 39 -61 119 -130 168 -143 62 -18 141 -12 195 14 66 32 214
177 243 238 27 58 62 183 62 220 0 77 -76 208 -157 269 -62 46 -60 52 21 64
66 9 76 14 86 41 24 63 -39 146 -150 197 -97 45 -210 39 -374 -19 l-69 -24 7
53 c12 88 28 110 114 155 107 55 312 180 342 208 48 46 21 140 -58 202 -56 44
-141 89 -202 106 -56 16 -163 29 -172 21z m375 -1130 c9 -4 17 -16 17 -26 0
-34 -50 -169 -73 -196 -86 -105 -201 -189 -246 -181 -23 4 -26 57 -6 126 22
78 101 238 131 269 24 24 31 25 92 20 37 -3 75 -8 85 -12z"/>
</g>
</svg>
